<svg height="167" width="375" xmlns="http://www.w3.org/2000/svg"><g fill="none" fill-rule="evenodd"><g fill="#23273c"><path d="M216.466 26.38L198.18 36.938l18.286 10.557 18.286-10.557zM143.276 0l-18.329 10.533L161.53 31.65l18.275-10.56zM49.293 36.97l-18.33 10.532L67.546 68.62 85.82 58.06zm66.545 15.797l-18.33 10.531 54.863 31.68 18.276-10.56zm155.512-5.285l-91.439 52.794 18.28 10.561 91.445-52.797zM0 48.644l15.314-8.842L0 30.96zm0 48.385l12.676-7.318L0 82.392zm0 49.173v19.426l1.462.846 91.447-52.8-18.286-10.556zm353.741-106.4l18.286 10.557L375 48.644V30.96l-2.972-1.715zm-2.637 49.91l18.285 10.557 5.61-3.24V82.392l-5.61-3.239zm7.078 66.2l16.817 9.716v-19.426zm-210.333-5.175l-36.528-21.09-18.329 10.533 36.582 21.119zm13.776 10.473l9.503 5.491h17.558l82.664-47.727-18.285-10.558zM314.313 17.848l-18.286 10.557 18.286 10.558L332.6 28.405zm-20.016 148.853h27.653l-13.826-7.983z"/></g><g fill="#181b27"><path d="M216.466 47.495v21.179l18.286-10.558V36.939zm-54.94-15.842l.009 21.111 18.275-10.56V21.087zm-93.984 36.97l.009 21.11 18.276-10.561V58.058zm84.825 26.357l.009 21.11 18.275-10.56V84.416zm45.823 15.857v21.115l91.446-52.798V58.04zM0 48.644v21.179l15.314-8.842V39.8zm0 48.385v42.23l12.676-7.318v-42.23zm1.462 69.444v.228h36.176l55.27-31.912v-21.114zM372.028 50.36v21.18L375 69.822V48.644zm-2.638 49.91v42.23l5.61-3.24V97.03zM129.57 161.3l.002 5.401h18.281v-15.965zm59.115 5.401h36.572l46.092-26.613v-21.114zM332.599 28.405l-18.286 10.558.024 105.581.028-.015 18.257-10.54z"/></g><g fill="#11131a"><path d="M161.625 166.701h9.503l-9.503-5.491zM198.18 58.116V36.937l18.286 10.557v21.18zm-36.654-26.463l-36.579-21.12.049 21.138 36.539 21.093zm-93.984 36.97l-36.58-21.121.05 21.138 36.539 21.094zm84.825 26.357l-54.86-31.681.049 21.138 54.82 31.654zm27.544 5.297v21.114l18.279 10.562v-21.115zm173.83-60.475V60.98l18.287 10.558v-21.18zm15.648 60.467L351.104 89.71v42.23l18.285 10.557zM358.182 166.7h16.817v-1.073l-16.817-9.716zm-265.14-5.383l9.323 5.383h27.208l-.002-5.4-36.579-21.12zM314.312 38.963l-18.286-10.558.024 105.583 2.715 1.567 15.571 8.99z"/></g><g fill="#181b25"><path d="M198.18 58.116l-18.487 10.557 18.438 10.468 18.335-10.468zm-73.184-26.445l-18.33 10.532 36.572 21.115 18.297-10.554zM31.012 68.64l-18.33 10.532 36.572 21.115L67.55 89.734zm66.544 15.797L79.227 94.969l54.852 31.676 18.296-10.554zm82.34 36.93l-18.314 10.542 18.3 10.564 18.308-10.527zM0 166.7h1.462v-.228L0 165.628zm335.255-95.162l18.438 10.467 18.335-10.467L353.74 60.98zm-2.43 92.092l36.564-21.133-18.285-10.557-36.558 21.128zm-249.153 3.07h18.693l-9.324-5.383zm155.726 0h36.578l38.4-22.166-.012-.006-.027.015-15.57-8.989-2.715-1.562z"/></g></g></svg>
