<?xml version="1.0" encoding="UTF-8"?>
<svg width="250px" height="250px" viewBox="0 0 250 250" version="1.1" xmlns="http://www.w3.org/2000/svg" xmlns:xlink="http://www.w3.org/1999/xlink">
    <!-- Generator: Sketch 53.2 (72643) - https://sketchapp.com -->
    <title>MediumIcon Copy</title>
    <desc>Created with Sketch.</desc>
    <g id="MediumIcon-Copy" stroke="none" stroke-width="1" fill="none" fill-rule="evenodd">
        <path d="M159.471902,214 L159.471902,147.310651 L179.638105,147.310651 C181.140082,147.310651 182.410585,146.199908 182.611219,144.711392 L185.802489,121.035234 C185.820393,120.902404 185.829375,120.768524 185.829375,120.634493 C185.829375,118.977639 184.48623,117.634493 182.829375,117.634493 L159.471902,117.634493 L159.471902,98.3231292 C159.471902,93.3525664 163.501339,89.3231292 168.471902,89.3231292 L183.26087,89.3231292 C184.917724,89.3231292 186.26087,87.9799834 186.26087,86.3231292 L186.26087,66 C186.26087,64.3431458 184.917724,63 183.26087,63 L158.938767,63 C143.849187,63 131.616665,75.2325218 131.616665,90.3221021 L131.616665,117.634493 L111.26087,117.634493 C109.604015,117.634493 108.26087,118.977639 108.26087,120.634493 L108.26087,143.466464 C108.26087,145.123318 109.604015,146.466464 111.26087,146.466464 L131.616665,146.466464 L131.616665,214 L57,214 C45.954305,214 37,205.045695 37,194 L37,57 C37,45.954305 45.954305,37 57,37 L194,37 C205.045695,37 214,45.954305 214,57 L214,194 C214,205.045695 205.045695,214 194,214 L159.471902,214 Z" id="Combined-Shape" fill="#8286a4"></path>
    </g>
</svg>