<?xml version="1.0" encoding="UTF-8"?>
<svg width="250px" height="250px" viewBox="0 0 250 250" version="1.1" xmlns="http://www.w3.org/2000/svg" xmlns:xlink="http://www.w3.org/1999/xlink">
    <!-- Generator: Sketch 53.2 (72643) - https://sketchapp.com -->
    <title>LinkedinIcon</title>
    <desc>Created with Sketch.</desc>
    <g id="LinkedinIcon" stroke="none" stroke-width="1" fill="none" fill-rule="evenodd">
        <path d="M49,37 L202,37 C208.627417,37 214,42.372583 214,49 L214,202 C214,208.627417 208.627417,214 202,214 L49,214 C42.372583,214 37,208.627417 37,202 L37,49 C37,42.372583 42.372583,37 49,37 Z M77,92 C85.2842712,92 92,85.2842712 92,77 C92,68.7157288 85.2842712,62 77,62 C68.7157288,62 62,68.7157288 62,77 C62,85.2842712 68.7157288,92 77,92 Z M64,103 L64,188 L91,188 L91,103 L64,103 Z M106,103 L106,188 L133,188 C133,158.055581 133,141.789018 133,139.200311 C133,135.317251 135.764989,124.460556 147.520882,124.460556 C159.276775,124.460556 162.085723,134.527464 162.085723,139.200311 C162.085723,142.315543 162.085723,158.582106 162.085723,188 L189.041764,188 C189.041764,162.639947 189.041764,143.837201 189.041764,131.591764 C189.041764,113.223607 177.789019,100.599329 159.276775,100.599329 C146.935278,100.599329 138.176353,104.807422 133,113.223607 L133,103 L106,103 Z" id="Combined-Shape" fill="#8286a4"></path>
    </g>
</svg>
