<?xml version="1.0" encoding="UTF-8" standalone="no"?>
<!-- Created with Inkscape (http://www.inkscape.org/) -->
<svg
   xmlns:dc="http://purl.org/dc/elements/1.1/"
   xmlns:cc="http://creativecommons.org/ns#"
   xmlns:rdf="http://www.w3.org/1999/02/22-rdf-syntax-ns#"
   xmlns:svg="http://www.w3.org/2000/svg"
   xmlns="http://www.w3.org/2000/svg"
   xmlns:sodipodi="http://sodipodi.sourceforge.net/DTD/sodipodi-0.dtd"
   xmlns:inkscape="http://www.inkscape.org/namespaces/inkscape"
   width="366"
   height="272.3"
   viewBox="0 0 1000 744.08003"
   id="svg4245"
   version="1.1"
   inkscape:version="0.91 r13725"
   sodipodi:docname="Paramount_Pictures.svg">
  <defs
     id="defs4247" />
  <sodipodi:namedview
     id="base"
     pagecolor="#ffffff"
     bordercolor="#666666"
     borderopacity="1.0"
     inkscape:pageopacity="0.0"
     inkscape:pageshadow="2"
     inkscape:zoom="0.5"
     inkscape:cx="301.08853"
     inkscape:cy="417.25063"
     inkscape:document-units="px"
     inkscape:current-layer="layer1"
     showgrid="false"
     units="px"
     inkscape:window-width="1366"
     inkscape:window-height="705"
     inkscape:window-x="-8"
     inkscape:window-y="-8"
     inkscape:window-maximized="1" />
  <metadata
     id="metadata4250">
    <rdf:RDF>
      <cc:Work
         rdf:about="">
        <dc:format>image/svg+xml</dc:format>
        <dc:type
           rdf:resource="http://purl.org/dc/dcmitype/StillImage" />
        <dc:title></dc:title>
      </cc:Work>
    </rdf:RDF>
  </metadata>
  <g
     inkscape:label="Layer 1"
     inkscape:groupmode="layer"
     id="layer1"
     transform="translate(0,-308.28213)">
    <g
       id="g4896"
       transform="translate(0,59.510862)">
      <polygon
         transform="matrix(0.77387401,0,0,0.77387401,0,249.08096)"
         points="395.1,80.2 366.7,95.1 344.6,72.6 349.7,103.8 321.5,118.8 353.4,124 358.4,156.1 372.5,127.3 403.9,132.3 381,109.7"
         id="polygon5" />
      <polygon
         transform="matrix(0.77387401,0,0,0.77387401,0,249.08096)"
         points="476.6,51.1 459.1,24.8 458.3,56.5 427.7,65.6 458,76.9 456.9,109.6 476.2,84 506.1,95 487.9,68 507.2,42.3"
         id="polygon7" />
      <polygon
         transform="matrix(0.77387401,0,0,0.77387401,0,249.08096)"
         points="292.1,139.3 267.1,159.3 241.1,141.5 252,171.3 227.1,191.2 259.5,190.3 270.5,220.9 278.8,189.8 310.5,188.7 283.8,170.7"
         id="polygon9" />
      <polygon
         transform="matrix(0.77387401,0,0,0.77387401,0,249.08096)"
         points="593.2,29.3 581.2,0 574.2,31 542.6,34.1 570.1,51 562.9,82.8 586.7,61.3 613.9,78 601.2,48.2 624.9,26.3"
         id="polygon11" />
      <polygon
         transform="matrix(0.77387401,0,0,0.77387401,0,249.08096)"
         points="132.2,342.5 128.2,310.2 112.4,338.2 82,331.6 103,355 87.2,383 116.9,369.8 138.2,394 134.7,362.1 163.7,349"
         id="polygon13" />
      <polygon
         transform="matrix(0.77387401,0,0,0.77387401,0,249.08096)"
         points="83,447 73,416.2 62.8,446.8 31.5,446.1 56.7,465 46.5,495.5 73,477 98.8,496.6 89.1,465.9 115.3,447.4"
         id="polygon15" />
      <polygon
         transform="matrix(0.77387401,0,0,0.77387401,0,249.08096)"
         points="202.1,216.8 181.3,241.3 152.6,228.8 168.9,255.9 148.2,280.2 179.7,273.1 196.3,300.9 198.6,269 229.7,261.7 200,249.2"
         id="polygon17" />
      <polygon
         transform="matrix(0.77387401,0,0,0.77387401,0,249.08096)"
         points="1207.4,326.9 1176.8,333 1161.2,305 1157,337.3 1125.5,343.6 1154.4,356.9 1150.4,388.8 1172.2,364.9 1201.6,378 1186,349.8"
         id="polygon19" />
      <polygon
         transform="matrix(0.77387401,0,0,0.77387401,0,249.08096)"
         points="1233.1,459.3 1258.5,440.9 1227.2,441.2 1217.2,410.6 1207.1,441.6 1174.9,441.7 1200.9,460.3 1191,490.9 1216.9,471.4 1243.3,490.1"
         id="polygon21" />
      <polygon
         transform="matrix(0.77387401,0,0,0.77387401,0,249.08096)"
         points="1119.1,251.4 1135.8,224.6 1106.8,236.7 1086.3,212.1 1088.4,244.8 1058.6,257.1 1089.4,264.5 1091.6,296.5 1108.5,268.7 1139.8,276"
         id="polygon23" />
      <polygon
         transform="matrix(0.77387401,0,0,0.77387401,0,249.08096)"
         points="54.7,559.7 39,531.4 34.8,563.2 3.9,568.6 32.2,582.5 27.9,614.4 50.5,590.9 79.4,605.2 64.2,577 86.3,553.8"
         id="polygon25" />
      <polygon
         transform="matrix(0.77387401,0,0,0.77387401,0,249.08096)"
         points="1265.2,645.2 1244.2,670.2 1214.4,657.9 1231.5,685 1211,709.6 1242.3,701.5 1259.7,728.8 1261.9,696.5 1292.2,689 1263,677.3"
         id="polygon27" />
      <polygon
         transform="matrix(0.77387401,0,0,0.77387401,0,249.08096)"
         points="711.9,30.6 705.4,-0.4 692.8,28.7 661.2,25.6 685.1,47.5 672.1,77.2 699.4,60.9 723.1,82.3 716.1,50.6 743.6,33.8"
         id="polygon29" />
      <polygon
         transform="matrix(0.77387401,0,0,0.77387401,0,249.08096)"
         points="827.9,54.9 827.5,23.2 809.6,49.3 779.4,40.1 798.7,66.3 780.1,93.2 810,82.2 829.1,108 828.3,75.4 858.6,64.3"
         id="polygon31" />
      <polygon
         transform="matrix(0.77387401,0,0,0.77387401,0,249.08096)"
         points="942.6,70 920.2,92.3 892,77.4 905.9,106.8 882.8,129.5 914.2,124.6 928.1,153.5 933.6,121.4 965.3,116.3 937,101.2"
         id="polygon33" />
      <polygon
         transform="matrix(0.77387401,0,0,0.77387401,0,249.08096)"
         points="1046.6,138.1 1020.3,155.6 995.5,135.4 1003.8,167.1 976.7,184.8 1008.5,186.2 1016.6,217.2 1028.1,186.9 1060.1,187.8 1035.2,167.6"
         id="polygon35" />
      <polygon
         transform="matrix(0.77387401,0,0,0.77387401,0,249.08096)"
         points="1240.5,585.3 1262.9,608.5 1258.9,576.6 1287.4,563.2 1256.5,557.5 1252.4,525.6 1236.6,554.1 1204.9,547.9 1226.8,571.2 1211.6,599.1"
         id="polygon37" />
      <path
         d="m 536.99118,619.2249 c 1.62513,1.77991 15.24531,13.92973 17.48955,16.32874 2.47639,2.70856 17.18,14.47144 25.1509,14.47144 7.89352,0 13.69757,8.74478 17.95388,13.07848 9.36388,8.74477 48.44451,50.06964 61.21343,58.89181 5.64928,3.94675 11.0664,3.25027 15.32271,6.50054 4.48847,3.25027 6.50054,5.4945 9.05433,6.26838 2.55378,0.77387 10.75684,-1.54775 20.50766,10.83423 4.48847,3.0955 5.72666,3.7146 5.72666,3.7146 0,0 13.15586,12.07243 17.87649,20.73982 4.25631,7.42919 102.92525,139.83904 138.29129,187.27751 32.73487,-60.13001 51.46262,-129.15957 51.46262,-202.60021 0,-232.1622 -186.19408,-420.44575 -415.8025,-420.44575 -229.60842,0.0774 -415.647734,188.36093 -415.570347,420.60052 0,63.38028 16.483517,134.49931 46.122887,192.92679 53.55209,-50.22442 193.93283,-210.6485 210.02941,-229.29887 24.45442,-28.40117 35.05649,-10.29252 48.21235,-26.15694 7.11964,-8.66739 11.22117,-11.99504 14.23928,-13.77495 5.10757,-3.01811 10.91163,-10.29253 13.69757,-12.3046 2.86334,-2.24424 9.44127,-10.91162 14.47145,-15.32271 4.95279,-4.33369 15.01315,-10.91162 25.07351,-19.6564 10.13775,-8.82216 27.31776,-29.09766 45.96812,-29.09766 22.21018,-0.0774 31.65145,15.16793 33.50875,17.02523 m -320.30646,8.59 c -34.43739,-0.23216 -39.3128,-24.14487 -39.15802,-34.20523 0.0774,-1.8573 0.30955,-3.17288 0.46432,-3.94676 1.54775,-5.03018 4.17892,-9.44126 9.28649,-9.44126 5.18496,0 9.44126,4.25631 9.44126,9.44126 0,3.25027 -1.62513,6.11361 -4.2563,7.73874 -3.94676,2.55379 -4.48847,5.49451 -4.48847,6.88748 0,0.38694 0.0774,0.69649 0.0774,0.69649 0,16.63829 20.04334,18.88252 27.31776,19.11469 l 1.31558,0 c 7.58397,0 14.1619,-1.54775 19.88856,-4.41109 40.16407,-19.81117 40.62839,-101.3001 87.52516,-131.32642 1.54774,-1.00603 2.86333,-0.6191 3.25027,0.0774 0.23216,0.46433 0.15477,1.00604 -0.30955,1.70252 -16.79307,21.12676 -23.13884,55.332 -23.13884,55.332 14.54884,0 26.23433,-7.81613 33.8183,-17.79911 5.88144,-7.73874 9.05432,-16.71568 9.05432,-24.29964 0,-29.71676 -26.3891,-42.09875 -48.75406,-42.09875 -62.68379,0 -89.76938,44.2656 -89.76938,68.33308 0,24.14487 15.01315,32.88964 26.00216,32.88964 13.15586,0 18.4182,-7.89351 18.34082,-13.23324 0,-0.77388 -0.0774,-1.54775 -0.38694,-2.08946 -0.77387,-1.93469 -1.08342,-3.86937 -1.00604,-5.57189 0.15478,-5.18496 3.32766,-8.82217 6.88748,-8.82217 1.8573,0 8.04829,-0.23216 8.04829,10.83424 0,10.67946 -15.01315,21.43631 -31.41928,21.43631 -16.48352,0 -40.31884,-9.05433 -40.31884,-35.44343 0,-53.70686 65.23758,-73.90497 103.69912,-72.04767 37.14595,1.70252 60.98127,18.10865 66.321,37.30073 0.85126,2.78594 1.16081,5.64928 1.16081,8.51261 -0.0774,40.39622 -63.45767,47.36109 -63.45767,47.36109 -11.06639,56.02848 -55.09983,77.3874 -85.43569,77.07785 m 303.04907,-47.9028 c 6.57792,-15.09054 13.00108,-29.71676 19.50162,-44.65253 0.0774,-0.30955 0.0774,-0.46433 0.0774,-0.6191 0.38693,-1.31559 0,-2.70856 -0.6191,-3.25027 -1.31559,-0.6191 -3.55982,0.6191 -5.18496,1.47036 -3.48243,2.4764 -6.57793,5.72667 -8.97694,9.90559 -2.55378,4.10153 -4.79801,8.35784 -6.57793,12.76892 l -10.98901,24.45442 -14.54883,0 c 1.54775,-3.25027 4.17892,-9.67343 5.88145,-13.00109 0,-0.23216 -0.38694,-0.38693 -0.38694,-0.23216 -0.85126,0.77388 -2.01207,1.70252 -3.01811,2.55379 -7.3518,6.1136 -15.94181,12.53675 -22.36496,11.22117 -2.4764,-0.23216 -4.56586,-2.39901 -5.10757,-4.64325 -0.30955,-1.39297 -0.38693,-2.70855 -0.30955,-4.02414 0.0774,-1.31559 0.30955,-2.55378 0.6191,-3.7146 0,-0.30955 -0.30955,-0.30955 -0.6191,0 -6.34576,6.03622 -11.99504,11.0664 -19.96595,13.00109 -4.56585,1.00603 -8.74477,-1.93469 -10.21513,-5.26235 -1.08343,-1.93468 -1.70253,-4.41108 -1.62514,-7.3518 0,-2.86333 0.6191,-6.1136 2.32162,-9.59604 1.93469,-4.48847 4.10153,-9.13171 6.81009,-13.00108 -1.62513,0.77387 -4.8754,1.16081 -7.11964,0.77387 -1.85729,-0.23216 -3.86937,-1.70252 -4.79802,-3.0181 -1.23819,-1.39298 -1.47036,-3.86937 -1.47036,-5.5719 0,0 0.0774,-0.0774 0,-0.0774 -0.15477,-0.0774 -0.77387,-0.0774 -1.08342,0.0774 -4.48847,3.63721 -6.34577,7.81613 -8.51261,12.53676 l -12.69154,28.71073 -14.62622,0 5.41712,-12.14982 c 0.15478,-0.15478 0.15478,-0.38694 0.15478,-0.46433 -0.0774,-0.0774 -0.23217,-0.0774 -0.30955,0.0774 -7.66136,7.04225 -16.94784,14.85838 -24.37703,13.38802 -2.08946,-0.38694 -4.41109,-2.4764 -4.79802,-4.64325 -0.6191,-2.63117 -0.38694,-5.41711 0,-7.73874 l -0.6191,0 c -2.24424,2.24424 -4.41108,4.3337 -6.81009,6.191 -3.32766,2.70856 -7.04226,4.79802 -11.29856,6.03621 -0.54172,0.15478 -1.00604,0.30955 -1.54775,0.38694 -0.0774,0.0774 -0.30955,0.0774 -0.46433,0.0774 -4.17892,1.16081 -8.04829,-1.54775 -9.75081,-5.26234 -0.0774,-0.30955 -0.15477,-0.6191 -0.30955,-1.00604 -1.2382,-3.7146 -1.08342,-7.66135 -0.38694,-11.37595 0.38694,-1.39297 0.77388,-2.86333 1.31559,-4.25631 5.64928,-15.01315 16.01919,-25.77 30.18109,-33.81829 9.05432,-5.26234 22.98405,-6.88748 32.81225,-1.70252 l 0,0.0774 c -6.7327,15.4001 -11.68549,26.54388 -18.03126,41.09271 -0.23216,0.69649 -0.54171,1.70253 -0.54171,2.63118 -0.0774,0.85126 0.0774,1.70252 0.85126,2.08946 1.08342,0.61909 2.39901,0.61909 3.25027,0 7.89351,-3.79199 15.01316,-13.31064 20.50766,-24.06749 l 9.8282,-21.97802 13.85235,0 -3.7146,8.20307 c -0.15477,0.30955 -0.15477,0.54171 -0.15477,0.6191 0,0.0774 0,0.0774 0.15477,0 4.25631,-3.40505 8.97694,-8.35784 14.47144,-11.37595 2.32163,-1.16081 7.35181,-1.16081 6.8101,2.55378 -0.30955,3.17289 -2.78595,5.72667 -4.10154,8.82217 -0.77387,1.93468 -1.62513,4.33369 -1.31558,5.72666 0.6191,1.47036 2.24423,2.24424 4.33369,0.54172 2.16685,-1.2382 3.94676,-2.4764 5.80406,-4.10154 3.48243,-3.40504 7.89351,-6.65531 12.84631,-9.13171 9.8282,-4.72063 23.2936,-7.73874 33.04442,-1.39297 -6.8101,15.55486 -11.91766,27.16297 -18.41821,41.78919 -0.30954,0.6191 -0.46432,1.16081 -0.61909,1.47036 -0.23217,1.39298 0.46432,1.93469 1.00603,2.32163 0.92865,0.61909 2.55379,0.77387 4.72063,-0.30955 5.49451,-2.32163 15.01316,-13.23325 18.72775,-21.59109 3.63721,-7.66135 6.96487,-15.40009 10.75685,-24.14487 l 14.31667,0 -4.02414,8.51262 c 0,0 0.38693,0.23216 0.54171,0.23216 4.02414,-3.63721 13.77496,-11.6855 21.20415,-10.06036 4.02414,0.92865 5.95883,5.80405 5.64928,9.36387 l 0,0.0774 c 2.24423,-1.62514 4.64324,-3.32766 7.11964,-5.03018 0.0774,-0.15478 0.23216,-0.15478 0.30955,-0.23216 0.15477,-0.0774 0.46432,-0.23217 0.69648,-0.38694 0.46433,-0.23216 0.85127,-0.46433 1.39298,-0.77388 0.0774,0 0.0774,0 0.15477,-0.0774 0.54171,-0.38694 1.31559,-0.77388 1.93469,-1.08343 0.15477,-0.0774 0.38693,-0.0774 0.6191,-0.23216 1.31558,-0.46432 2.70856,-1.00603 4.17892,-1.39297 0.85126,-0.23216 1.54774,-0.23216 2.08946,-0.38694 8.20306,-1.00603 11.37594,5.33973 8.66739,11.37595 -2.94073,6.88748 -8.12568,18.95991 -12.22721,28.40118 -1.31559,3.0181 -2.55379,5.64928 -3.55982,7.89351 -0.0774,0.15478 -0.0774,0.30955 -0.0774,0.30955 -0.46433,1.08342 -0.46433,2.70856 0.0774,3.17288 0.15477,0.23217 0.54171,0.38694 0.85126,0.38694 1.08342,0.0774 2.32162,-0.54171 2.94072,-0.92865 4.8754,-4.17892 7.58396,-6.88748 11.45333,-12.45937 0.69649,-6.26838 3.25027,-12.3046 6.88748,-17.7991 1.8573,-2.94072 4.10153,-5.57189 6.57793,-8.12568 7.58397,-8.59 19.57901,-15.24532 31.18712,-11.29856 4.10154,1.31559 6.88748,5.49451 7.81613,9.59604 0.6191,2.24423 1.16081,3.25027 1.16081,5.72667 3.01811,2.32162 6.42316,1.62513 9.59604,-0.38694 0.0774,0 0.15477,-0.15478 0.23216,-0.15478 0.30955,-0.15477 0.6191,-0.38693 1.00604,-0.54171 0,-0.0774 0,-0.0774 0.0774,-0.15477 0.30955,-0.30955 0.61909,-0.46433 0.92864,-0.77388 0.15478,-0.0774 0.23217,-0.23216 0.38694,-0.30955 2.01207,-1.77991 3.7146,-3.94675 4.79802,-5.80405 0.15478,-0.38694 0.30955,-0.85126 0.54171,-1.31559 0.69649,-1.62513 1.39298,-3.25027 1.8573,-4.56585 0.0774,-0.15478 0.15477,-0.46433 0.15477,-0.6191 3.48244,0.23216 10.36992,0 14.31667,0 l -17.72171,41.24748 c -1.2382,2.4764 -1.47036,3.86937 -1.47036,5.72667 0,1.31559 1.39297,1.54775 2.94072,1.47036 0.15477,-0.0774 0.23216,-0.0774 0.38694,-0.0774 1.62513,-0.30955 3.79198,-1.62513 5.88144,-3.55982 2.4764,-2.32162 5.10757,-5.4945 7.42919,-8.97694 1.39297,-2.08946 2.63117,-4.2563 3.71459,-6.34576 1.8573,-4.25631 3.79199,-8.28046 5.72667,-12.38199 2.55379,-5.33973 5.10757,-10.60207 7.58397,-16.63829 l 14.39405,0 c -5.64928,13.85235 -12.2272,28.55595 -16.94784,39.3128 -0.38693,0.85126 -0.85126,1.8573 -1.31558,2.94072 -0.0774,0.23216 -0.15478,0.30955 -0.15478,0.46433 -0.0774,0.23216 -0.0774,0.46432 -0.15477,0.6191 -0.0774,0.46432 -0.15478,0.85126 -0.23216,1.31558 -0.0774,0.6191 0.0774,1.39297 0.23216,2.16685 0.38694,0.92865 1.62513,1.08342 2.63117,0.85126 0.38694,-0.0774 0.69649,-0.15477 0.92865,-0.30955 6.34577,-3.55982 17.02523,-15.78703 20.81721,-23.21622 2.24423,-5.18496 4.17892,-9.51865 6.1136,-13.85234 1.47036,-3.32766 3.01811,-6.65532 4.72064,-10.29253 l 14.93576,0 -3.55982,8.66739 c 5.41712,-4.48847 11.45334,-9.2091 18.57298,-10.29252 3.25027,-0.6191 7.3518,-0.30955 9.2091,3.0181 1.62514,2.94073 1.31559,5.88145 0.38694,8.89956 -0.38694,0.85126 -0.85126,1.85729 -1.16081,2.70855 -0.54172,1.08343 -1.08343,2.32163 -1.54775,3.40505 -3.7146,8.51261 -7.73874,17.33478 -11.37595,25.38307 -0.77387,2.24423 -1.08342,4.2563 0.54171,5.26234 0.30955,0.23216 0.6191,0.30955 1.16081,0.15478 3.55982,-0.54172 12.14983,-6.73271 16.63829,-16.87046 2.94073,-6.42315 5.18496,-11.22117 7.50658,-16.40613 1.39298,-2.94072 2.78595,-6.1136 4.25631,-9.8282 l -7.66135,0 2.24423,-4.48847 7.66135,0 10.98902,-23.99009 14.62621,0 -10.52468,23.99009 11.14378,0 -2.08946,4.48847 -11.22117,0 c -2.55378,5.64928 -4.95279,10.83424 -7.27442,15.94181 -3.40504,7.19703 -6.57792,14.16189 -9.75081,21.66847 -0.15477,0.23216 -0.30955,0.6191 -0.38694,0.85126 -2.08945,4.48847 -3.86937,10.98901 -2.78594,15.16793 0.77387,2.4764 3.86937,3.01811 6.57793,2.08946 2.78594,-1.00603 5.26234,-2.47639 7.58396,-4.2563 4.64325,-3.55983 8.28045,-8.51262 11.53073,-13.69757 0.0774,-0.15478 0.15477,-0.23217 0.30955,-0.23217 1.00603,-0.38693 4.33369,0.0774 4.10153,0.6191 -2.86334,5.72667 -7.42919,11.60811 -12.76892,15.86442 -5.41712,4.25631 -11.45334,7.19703 -17.48956,6.96487 -3.55982,0 -7.50657,-2.08946 -9.59603,-5.26235 -1.00604,-1.54775 -1.62514,-2.94072 -2.16685,-4.8754 -0.85126,-3.0955 -0.6191,-6.73271 0,-10.06037 -2.78595,2.24424 -5.64928,4.56586 -8.51262,6.65532 -3.71459,2.86333 -7.81612,5.18496 -12.45937,6.11361 -3.6372,0.61909 -8.20306,-0.77388 -9.05432,-4.79802 -0.38694,-2.24424 -0.38694,-4.64325 0.15477,-6.8101 0.23216,-0.85126 0.38694,-1.47036 0.6191,-2.16684 0.85126,-1.93469 1.77991,-3.86937 2.63117,-5.72667 2.63117,-5.64928 5.10757,-11.29856 7.58397,-17.10262 1.54775,-3.48243 3.01811,-6.96486 4.56585,-10.67946 0.0774,-0.0774 0.0774,-0.30955 0.0774,-0.6191 0,-0.85126 -0.38693,-1.85729 -0.69648,-2.08946 -0.77388,-0.85126 -3.25028,-0.85126 -5.41712,0.85127 -3.01811,2.32162 -5.64928,4.79801 -7.9709,7.58396 -5.18496,6.26838 -8.66739,13.15586 -11.6855,20.2755 -3.0955,6.88748 -6.34577,13.77496 -9.67343,20.50766 l -14.47144,0 c 1.31558,-3.48243 3.32766,-7.89351 5.03018,-11.91766 0.30955,-0.77387 0.69649,-1.54775 1.00604,-2.32162 0,-0.23216 -0.23217,-0.23216 -0.23217,0 -1.93468,1.93468 -3.94675,3.94676 -6.03621,5.72667 -1.31559,1.16081 -2.70856,2.32162 -4.02415,3.40504 -3.71459,2.63117 -7.50658,5.03018 -11.22117,5.88145 -3.01811,0.85126 -6.11361,-0.23217 -7.66135,-3.0955 -1.62514,-2.70856 -2.24424,-6.88748 -0.6191,-10.52469 0,-0.15477 -0.23217,-0.15477 -0.46433,0 -4.64324,4.72063 -8.97694,8.89955 -14.54883,11.60811 -1.08342,0.6191 -2.24423,1.16081 -3.40505,1.47036 -0.46432,0.15478 -1.00603,0.30955 -1.54774,0.38694 -6.65532,1.2382 -12.14983,-3.01811 -10.21514,-11.60811 0.30955,-1.31559 0.6191,-2.78595 1.31559,-4.25631 1.39297,-3.32766 5.4945,-12.53676 10.06036,-23.52577 -3.7146,1.62514 -8.35784,1.62514 -10.75685,0.77388 -0.15478,0 -0.23216,0 -0.30955,0.0774 -0.0774,0.0774 -0.0774,0.0774 -0.0774,0.23217 -2.08946,9.59603 -6.42315,18.80514 -12.69153,25.84739 -3.79198,4.33369 -8.43523,7.81613 -13.5428,10.36991 -6.81009,3.32766 -14.47144,4.10153 -21.35892,-0.46432 -3.25027,-2.32163 -5.18496,-7.58397 -5.41712,-12.3046 -4.8754,5.03018 -10.13775,10.83424 -16.48351,13.54279 -2.94073,1.16082 -6.03622,1.70253 -9.44127,1.31559 -1.70252,-0.38694 -3.01811,-1.8573 -3.94675,-3.40505 -1.77991,-3.0181 -1.39298,-6.1136 -0.54172,-9.05432 0.30955,-1.08342 0.69649,-2.16685 1.16081,-3.17288 2.08946,-4.64325 4.17892,-9.13172 6.191,-13.62019 2.78594,-6.34576 5.57189,-12.76892 8.59,-20.12072 0.85126,-1.77991 -1.54775,-3.01811 -3.25027,-2.16685 -3.48244,1.8573 -6.34577,3.86937 -8.82217,6.88748 -0.92864,1.00604 -1.62513,2.08946 -2.39901,3.32766 -1.85729,2.16685 -3.32765,4.41108 -4.2563,7.11964 -4.79802,11.22117 -9.90559,21.59108 -14.23928,32.34793 l -15.16793,0.69649 0,0 0,0 0,0 z"
         id="path39"
         inkscape:connector-curvature="0" />
      <path
         d="m 757.62266,929.54838 c -2.55379,-6.88748 -13.62019,-23.9901 -17.18001,-29.40722 -3.55982,-5.4945 -9.36387,-17.41216 -15.78703,-25.07351 -5.88144,-6.81009 -1.08342,-8.66739 -7.19703,-14.54883 -3.71459,-3.48244 -15.09054,-13.77496 -17.64432,-15.94181 -2.39901,-2.24423 -11.84028,-10.52469 -17.25739,-15.24532 -5.18496,-4.56585 -17.95388,-13.54279 -17.48956,-19.26946 0.23217,-5.80406 -2.55378,-16.94784 -6.88747,-20.73982 -3.0955,-2.63118 -12.22721,-17.56694 -22.67451,-26.15695 -5.33973,-4.56585 -16.48352,-16.25135 -25.15091,-26.62126 -8.20306,-9.67343 -14.31667,-18.57298 -16.17397,-17.41217 -2.63117,1.8573 9.51866,19.11469 10.75685,21.12676 1.31559,2.08946 15.4001,26.54388 16.79307,33.12181 1.31559,6.50054 27.54991,51.07569 33.27658,65.00542 3.25027,7.9709 21.20415,18.88252 28.71073,31.57406 6.88748,11.76288 8.82216,9.36387 11.6855,9.44126 6.42315,0.23216 21.04937,16.17397 24.06748,20.50766 2.78594,4.41108 26.3891,28.2464 32.42532,33.97307 2.70856,2.55379 21.28153,33.12181 23.75793,30.87757 2.55378,-2.08946 -7.11964,-17.02522 -8.59,-20.27549 -1.54775,-3.25028 -6.81009,-8.04829 -9.44126,-14.93577"
         id="path41"
         inkscape:connector-curvature="0" />
      <path
         d="m 783.08311,891.00945 c -1.47036,-2.70856 -13.07847,-19.34685 -17.18,-24.84135 -7.19703,-9.44127 -0.6191,-12.9237 -4.3337,-18.72776 -1.54774,-2.55378 -10.75685,-13.77495 -21.66847,-25.07351 -5.57189,-5.5719 -11.76288,-10.98901 -17.02523,-15.78703 -8.59,-7.73874 -15.09054,-13.46541 -16.09658,-12.53676 -1.47036,1.47036 3.48244,7.73874 5.72667,10.36991 2.08946,2.78595 5.49451,7.66135 9.98298,13.07847 7.3518,8.89955 0.54171,15.47748 7.58396,22.44235 1.2382,1.2382 20.50766,23.06144 25.15091,27.16297 7.11964,6.26838 32.11577,36.37208 33.89568,38.15199 2.94072,2.70856 8.12568,8.74478 8.97694,7.73874 0.92865,-1.00603 -1.54775,-4.33369 -3.01811,-6.81009 -1.31559,-2.39901 -10.36991,-12.38198 -11.99505,-15.16793"
         id="path43"
         inkscape:connector-curvature="0" />
      <polygon
         transform="matrix(0.77387401,0,0,0.77387401,0,249.08096)"
         points="48,675.8 27.4,651 29.1,683.2 0,694.4 30.3,702.4 32.2,734.5 49.9,707.2 81,715.7 60.7,690.9 78,663.9"
         id="polygon45" />
      <polygon
         transform="matrix(0.77387401,0,0,0.77387401,0,249.08096)"
         points="1221.6,815.9 1233.7,846 1241.7,814.8 1273.1,813.2 1246.7,796.1 1254.8,765.1 1229.5,785.4 1202.5,767.7 1214.2,797.6 1189.5,817.8"
         id="polygon47" />
      <polygon
         transform="matrix(0.77387401,0,0,0.77387401,0,249.08096)"
         points="1179.8,923.7 1186,955.7 1199.9,926.7 1230.9,931.1 1208.1,909.5 1222,880.5 1193.2,895.5 1170.1,872.8 1175.9,904.4 1147.9,919.5"
         id="polygon49" />
      <path
         d="m 629.31434,937.9836 c -3.0181,-12.30459 8.35784,-3.6372 1.08343,-23.2936 -3.32766,-9.13172 -9.75081,-18.10866 -13.31063,-21.74586 -3.63721,-3.55982 -7.27442,-19.26947 -10.06037,-26.15695 -2.86333,-6.88747 -1.39297,-7.27441 -7.58396,-23.68054 -4.48847,-11.91766 8.28045,-7.89351 1.00603,-26.54388 -4.64324,-11.99505 -28.2464,-55.48676 -30.95496,-59.97523 -1.39297,-2.39901 -5.95883,-9.90559 -11.53072,-18.88253 -5.33973,-8.51261 -9.75081,-17.56694 -12.14982,-21.43631 -4.87541,-7.89352 -14.00712,-25.46046 -18.95991,-32.73487 -5.10757,-7.27442 -11.37595,-23.29361 -14.00712,-20.58505 -2.4764,2.32162 7.58396,26.3891 11.91766,41.7892 4.33369,15.16793 1.08342,21.43631 -1.47036,25.77 -2.55379,4.3337 -2.55379,7.11964 0,14.85838 2.32162,6.81009 10.83423,47.12893 13.31063,55.64154 2.55378,8.28046 5.10757,8.74478 6.50054,11.91766 5.10757,12.61415 12.14982,13.15586 15.78703,14.23929 10.29252,3.17288 11.0664,17.02522 17.64433,29.4846 6.19099,11.76288 11.91766,22.13279 17.33478,34.74694 5.41711,12.76892 33.04442,81.56632 37.68766,92.09101 1.62513,3.86937 14.85838,3.86937 13.38802,0 -3.48243,-7.58397 -10.98901,-26.62127 -15.63226,-45.5038"
         id="path51"
         inkscape:connector-curvature="0" />
      <polygon
         transform="matrix(0.77387401,0,0,0.77387401,0,249.08096)"
         points="94.4,932.2 108.1,961.1 114.4,929.1 146.3,925.2 118.4,909.8 124.4,878.3 101.2,900.6 72.7,885.5 86.3,914.6 63.4,936.1"
         id="polygon53" />
      <path
         d="m 485.45117,525.27659 c 0.0774,-0.30955 0.0774,-0.30955 0.0774,-0.46432 -0.0774,-0.15478 -0.46432,-0.15478 -0.85126,-0.15478 -5.41712,0 -11.45333,4.87541 -15.78703,9.59604 -0.69648,0.6191 -1.31558,1.31559 -1.77991,2.01208 -5.18495,6.42315 -13.62018,18.49558 -15.01315,27.31775 -0.85126,4.64324 1.08342,6.57793 3.86937,6.57793 5.41711,0 13.07847,-9.90559 17.41216,-18.49559 4.25631,-9.28649 6.57793,-14.62622 12.07244,-26.38911"
         id="path55"
         inkscape:connector-curvature="0" />
      <path
         d="m 304.82897,807.43106 c -1.8573,-1.54775 -25.22829,22.51973 -40.551,39.3128 -5.41711,5.72667 -8.82216,11.22117 -10.98901,13.85234 0,0 -6.81009,11.29856 -10.29252,15.94181 -3.7146,4.72063 -12.76892,18.18604 -16.63829,23.99009 -1.39298,2.01207 -4.9528,10.36991 -11.91766,19.26946 -3.40505,4.25631 -6.96487,9.98298 -13.69757,18.88253 -9.05433,11.6855 -15.94181,21.35892 -14.31667,22.51973 0.85126,0.6191 14.23928,-15.47748 28.40118,-32.96703 5.95883,-7.27441 12.38198,-14.85838 17.72171,-21.90063 2.63117,-3.48244 8.74478,-9.28649 10.75685,-12.3046 3.48243,-5.26234 7.3518,-9.13171 8.82216,-10.4473 7.9709,-6.50054 12.38199,-7.04225 14.93577,-10.60207 1.16081,-1.77991 16.87045,-25.77001 22.51973,-35.59821 5.49451,-9.2091 18.41821,-27.16298 15.24532,-29.94892"
         id="path57"
         inkscape:connector-curvature="0" />
      <polygon
         transform="matrix(0.77387401,0,0,0.77387401,0,249.08096)"
         points="46.7,801.9 20.1,818.6 51.5,820.6 59.2,851.7 71.5,821.4 103.7,823.7 79.1,803.4 91.1,773.6 63.9,791 38.9,770.6"
         id="polygon59" />
      <path
         d="m 402.87881,753.33726 c -6.42315,6.42316 -19.57901,29.4846 -24.60919,32.03839 -11.14379,5.57189 -16.17397,18.88252 -19.50163,24.14487 -2.39901,3.94676 -5.41712,10.21513 -10.83424,18.10865 -4.72063,6.88748 -10.13774,17.10262 -11.99504,20.73982 -2.01207,3.55982 -2.70856,7.04226 0.92865,7.04226 3.6372,0 0.77387,5.88144 -3.63721,12.53676 -2.55379,3.86937 -8.74478,22.28757 -10.60208,27.24036 -2.32162,6.26838 -2.08946,14.1619 -2.78594,16.79307 -0.92865,2.47639 -12.76892,28.09162 -15.94181,33.7409 -1.85729,3.7146 -1.39297,5.10757 -2.08946,7.04226 -1.08342,2.55378 0.38694,3.25027 2.08946,1.54775 2.24424,-2.39901 15.01316,-21.97803 18.95992,-24.22226 3.79198,-2.4764 7.19703,-6.03622 7.81612,-14.47145 0.6191,-8.43522 5.95883,-10.67946 10.06037,-15.63225 4.17892,-4.87541 9.75081,-11.45334 12.76892,-18.34081 2.70856,-6.88748 6.26838,-1.54775 12.76892,-12.14983 6.50054,-10.52468 20.97198,-36.68162 24.22226,-41.78919 3.25027,-5.03018 1.00603,-12.45937 0.54171,-18.34082 -0.23216,-3.25027 0.23216,-11.0664 2.08946,-19.42423 1.77991,-7.42919 5.26234,-15.01316 7.11964,-19.81118 1.39297,-3.01811 5.88144,-12.53676 5.64928,-16.32874 0,-0.69649 -1.54775,-1.77991 -3.01811,-0.46433"
         id="path61"
         inkscape:connector-curvature="0" />
      <path
         d="m 387.5561,524.88966 c 0,-0.23217 -0.46432,-0.23217 -0.85126,-0.23217 -6.19099,0 -13.07847,6.34577 -17.41216,11.60812 -4.02415,4.79801 -9.98298,13.15585 -13.07847,20.73982 -0.92865,2.24423 -1.62514,4.56586 -2.01208,6.57793 -0.54171,2.70856 0,4.48847 1.00604,5.41712 0.6191,0.77387 1.70252,1.16081 2.70856,1.16081 5.49451,0 13.07847,-9.90559 17.41216,-18.49559 4.3337,-9.36388 6.73271,-14.62622 12.07244,-26.46649 0.15477,-0.15478 0.23216,-0.15478 0.15477,-0.30955"
         id="path63"
         inkscape:connector-curvature="0" />
      <path
         d="m 594.25785,578.59651 c 0.77388,0.46433 1.54775,0.54172 2.32162,0.46433 5.64928,-0.69649 12.07244,-12.38199 17.87649,-23.371 6.50055,-12.45937 11.76289,-28.01424 6.191,-29.79415 -1.54775,-0.6191 -3.25027,-0.38693 -4.9528,0.6191 -0.38693,0.23216 -0.69648,0.38694 -1.08342,0.69649 -0.15478,0 -0.15478,0.0774 -0.23216,0.15477 -2.01208,1.54775 -3.94676,3.94676 -6.11361,6.65532 -2.94072,3.94676 -5.80405,8.97694 -8.35784,13.92973 -2.94072,5.41712 -5.4945,11.53073 -6.96486,16.87046 -1.8573,6.65531 -2.01208,12.30459 1.31558,13.77495"
         id="path65"
         inkscape:connector-curvature="0" />
    </g>
  </g>
</svg>
