<svg height="38.666668" viewBox="0 0 228 38.666668" width="228" xmlns="http://www.w3.org/2000/svg"><path d="m806.578 284.227h36.438v-136.657h-36.438zm365.852-31.321 69.19.098.43-105.16 35.32-.27-.13 105.434 153.23.332c21.24.91 29.8-3.055 29.72-23.434l.55-32.84c-.1-11.613-4.75-19.601-19.4-19.664l-64.73.778c-13.37.109-16.05 6.718-16.03 19.258l-.37 35.691-34.96.391.11-54.012c2.37-19.156 10.03-29.711 30.31-30.555l99.78.035c24.15 2.563 36.22 10.336 40.07 34.789 2.71 17.243.5 37.836.5 54.371 0 31.207-15.18 46.114-45.79 46.012l-277.85.168zm-294.914-104.883 36.617-.109.195 98.207 85.902-89.797c11.91-9.344 15.4-8.976 34.13-8.988 17.17-.012 22.21 4.457 23.89 20.711l.09 76.746c.04 17.219 17.27 19.281 24 10.18l40.39-44.379-44.28-.051-.05-28.188 50.48-.277c26.66-.047 20.16 1.91 38.83-17.676 4.74-4.968 11.81-16.816 21.11-16.839l39.26.089-104.95 113.465c-7.46 8.914-15.9 20.004-31.75 22.539-7.91 1.266-38.8 1.5-45.63-.312-11.41 1.265-22.8-10.766-22.24-26.551l-.45-69.645c-3.83-3.949-19.22 15.766-23.728 20.911-9.488 10.277-37.477 42.906-56.211 61.011-15.207 14.703-25.34 17.766-47.582 15.481-11.613-1.196-18.086-7.321-18.078-21.254zm-322.793.02 35.804-.566.09 96.39 47.856-58.031c13.875-18.133 35.394-15.574 50.324-.07l46.168 58.562 1.547-96.723 34.968-.066c.075 26.32-.152 52.727.165 79.066.132 11.059.816 28.797-.403 39.415-1.508 13.132-8.5 18.101-22.898 18.339-27.938.61-34.254-9.468-50.403-30.472l-34.847-45.231-33.813 44.942c-15.609 21.172-14.914 31.191-50.41 30.742-29.402-.375-23.961-20.016-24.066-56.09zm-194.285-.41 36.05-.149-.144 106.95 81.336.367c27.062.121 27.254-33.008.168-32.699l-43.254.492c-14.324-1.422-14.547-16.242-7.387-24.403l46.125-36.128c25.715-20.321 21.262-14.192 68.336-14.532l-60.672 47.215c13.684 1.832 43.012-2.391 49.852 27.524 5.789 25.304-.2 47.589-17.473 57.132-14.414 7.965-53.723 5.059-74.152 4.93l-78.868-.285zm-355.24269 105.32 81.47659-.16.457-105.465 35.4181.235-.266 104.632 210.192.68.047 31.484-327.21141-.074zm327.25769-105.414.102 30.535-118.008-.148.109 23.262 116.317.414.168 28.855-152.774-.066-.137-51.883c-.074-20.457 4.321-30.922 35.157-31.692 22.601-.558 59.406 1.153 119.066.723zm-12.863-123.707c4.758.0235 8.23.9532 10.418 2.7891 2.187 1.8281 3.281 4.6875 3.281 8.5977 0 3.8125-1.055 6.6562-3.144 8.5312-2.094 1.8711-5.305 2.8008-9.637 2.8008h-.918zm-20.902-17.88278v58.64848h17.062c5.414 0 10.047-.3008 13.875-.9024 3.828-.6015 6.945-1.5312 9.352-2.789 5.07-2.668 8.953-6.2071 11.675-10.6094 2.707-4.4024 4.059-9.4336 4.059-15.0664 0-5.6055-1.352-10.5938-4.047-14.9805-2.691-4.375-6.59-7.918-11.687-10.61328-2.489-1.28125-5.633-2.22656-9.45-2.8125-3.824-.58984-8.937-.875-15.336-.875zm170.281 21.32418h8.777l-1.805 6.6446c-.886 3.3633-1.492 5.9453-1.804 7.7656-.328 1.8047-.516 3.5117-.602 5.1094h-.371c-.066-1.5977-.269-3.3047-.586-5.1094-.328-1.8203-.93-4.4023-1.805-7.7656zm-27.957-21.32418 20.902 58.64848h23.473l20.508-58.64848h-22.668l-1.887 7.38278h-15.899l-1.804-7.38278zm175.492 43.55468v-11.4726h3.281c1.992 0 3.539.4804 4.621 1.4648 1.078.9727 1.614 2.3672 1.614 4.1836 0 1.875-.536 3.3203-1.614 4.3203-1.082 1-2.629 1.5039-4.621 1.5039zm-20.688-43.55468v58.64848h26.508c7.699 0 13.563-1.6954 17.625-5.086 4.063-3.3906 6.082-8.2851 6.082-14.6719 0-4.1523-1.023-7.582-3.062-10.2929-2.039-2.6953-4.797-4.2656-8.27-4.7305l15.653-23.86718h-23.61l-10.254 19.34378v-19.34378zm145.403 0v58.64848h20.656v-25.0039l13.371 25.0039h23.856l-17.692-28.8868 20.18-29.76168h-25.496l-14.219 24.51168v-24.51168zm213.457 0v58.64848h39.207v-15.9141h-18.098v-6.8086h16.375v-15.0117h-16.375v-20.91408zm157.074 21.32418h8.77l-1.81 6.6446c-.88 3.3633-1.48 5.9453-1.8 7.7656-.33 1.8047-.52 3.5117-.6 5.1094h-.37c-.06-1.5977-.27-3.3047-.59-5.1094-.32-1.8203-.93-4.4023-1.8-7.7656zm-27.96-21.32418 20.9 58.64848h23.47l20.51-58.64848h-22.67l-1.88 7.38278h-15.9l-1.81-7.38278zm164.28 0v39.45308h-11.73v19.1954h44.55v-19.1954h-11.74v-39.45308zm131.55 0v58.64848h39.22v-15.9141h-18.55v-5.6602h16.83v-15.0117h-16.83v-6.1523h19.03v-15.91018zm145.13 141.68378 36.06-.149-.15 106.95 81.34.367c27.06.121 27.25-33.008.16-32.699l-43.25.492c-14.32-1.422-14.55-16.242-7.38-24.403l46.12-36.128c25.72-20.321 21.26-14.192 68.33-14.532l-60.66 47.215c13.68 1.832 43-2.391 49.85 27.524 5.78 25.304-.21 47.589-17.47 57.132-14.42 7.965-53.73 5.059-74.16 4.93l-78.87-.285z" fill="#fff" fill-rule="evenodd" transform="matrix(.13333333 0 0 -.13333333 0 38.666667)"/></svg>
