<?xml version="1.0" encoding="UTF-8"?>
<svg width="127px" height="35px" viewBox="0 0 127 35" version="1.1" xmlns="http://www.w3.org/2000/svg" xmlns:xlink="http://www.w3.org/1999/xlink">
    <!-- Generator: Sketch 53.2 (72643) - https://sketchapp.com -->
    <title>Group</title>
    <desc>Created with Sketch.</desc>
    <defs>
        <linearGradient x1="104.879257%" y1="47.7187136%" x2="-11.7633921%" y2="55.3033658%" id="linearGradient-1">
            <stop stop-color="#FFFFFF" offset="0%"></stop>
            <stop stop-color="#ABABAB" offset="0%"></stop>
            <stop stop-color="#FFFFFF" offset="72.2577069%"></stop>
            <stop stop-color="#FFFFFF" offset="100%"></stop>
        </linearGradient>
        <radialGradient cx="52.8876245%" cy="85.4970783%" fx="52.8876245%" fy="85.4970783%" r="149.434434%" gradientTransform="translate(0.528876,0.854971),scale(0.364711,1.000000),rotate(-90.750066),translate(-0.528876,-0.854971)" id="radialGradient-2">
            <stop stop-color="#E1E1E1" offset="0%"></stop>
            <stop stop-color="#E5E5E5" offset="39.8780617%"></stop>
            <stop stop-color="#FFFFFF" offset="100%"></stop>
        </radialGradient>
        <linearGradient x1="37.9994502%" y1="16.6936568%" x2="56.4456854%" y2="108.335752%" id="linearGradient-3">
            <stop stop-color="#888888" offset="0%"></stop>
            <stop stop-color="#FFFFFF" offset="47.8937922%"></stop>
            <stop stop-color="#FFFFFF" offset="100%"></stop>
        </linearGradient>
        <radialGradient cx="53.4143984%" cy="0%" fx="53.4143984%" fy="0%" r="111.216424%" gradientTransform="translate(0.534144,0.000000),scale(1.000000,0.705882),rotate(-137.125975),translate(-0.534144,-0.000000)" id="radialGradient-4">
            <stop stop-color="#FFFFFF" offset="0%"></stop>
            <stop stop-color="#C3C3C3" offset="100%"></stop>
            <stop stop-color="#FFFFFF" offset="100%"></stop>
        </radialGradient>
        <linearGradient x1="124.113034%" y1="15.5944928%" x2="-9.40343306%" y2="75.5024626%" id="linearGradient-5">
            <stop stop-color="#FFFFFF" offset="0%"></stop>
            <stop stop-color="#B7B7B7" offset="38.3481383%"></stop>
            <stop stop-color="#FFFFFF" offset="100%"></stop>
        </linearGradient>
        <linearGradient x1="85.2147277%" y1="6.27019258%" x2="33.2908465%" y2="103.905096%" id="linearGradient-6">
            <stop stop-color="#CDCDCD" offset="0%"></stop>
            <stop stop-color="#D0D0D0" offset="32.1814845%"></stop>
            <stop stop-color="#FFFFFF" offset="100%"></stop>
        </linearGradient>
        <linearGradient x1="103.980415%" y1="42.9257069%" x2="-10.7406057%" y2="53.9923772%" id="linearGradient-7">
            <stop stop-color="#777777" offset="0%"></stop>
            <stop stop-color="#C9C9C9" offset="0%"></stop>
            <stop stop-color="#FFFFFF" offset="100%"></stop>
        </linearGradient>
        <linearGradient x1="84.7871796%" y1="-6.99500143%" x2="15.2347882%" y2="100%" id="linearGradient-8">
            <stop stop-color="#A5A5A5" offset="0%"></stop>
            <stop stop-color="#FFFFFF" offset="27.8135557%"></stop>
            <stop stop-color="#B4B4B4" offset="100%"></stop>
        </linearGradient>
        <radialGradient cx="211.017273%" cy="3.52428298%" fx="211.017273%" fy="3.52428298%" r="212.841654%" gradientTransform="translate(2.110173,0.035243),scale(1.000000,0.764945),rotate(147.794011),translate(-2.110173,-0.035243)" id="radialGradient-9">
            <stop stop-color="#FFCD00" stop-opacity="0" offset="0%"></stop>
            <stop stop-color="#FFFFFF" stop-opacity="0" offset="30.4796031%"></stop>
            <stop stop-color="#FFCD00" offset="100%"></stop>
        </radialGradient>
    </defs>
    <g id="Page-1" stroke="none" stroke-width="1" fill="none" fill-rule="evenodd">
        <g id="Artboard" transform="translate(-456.000000, -33.000000)">
            <g id="Group" transform="translate(456.000000, 33.000000)">
                <path d="M49.3999926,12.6315402 C65.0536868,12.6314883 73.8802129,12.6314623 75.879571,12.6314623 C77.978927,12.6314623 79.3524033,11.4209749 80,9 L80,18.4611847 C80,19.7866681 78.9254834,20.8611847 77.6,20.8611847 C68.8547193,20.8611847 60.1094387,20.8611847 51.364158,20.8611847 C48.9865288,20.8611847 47.5318095,21.9074565 47,24 L46.9999897,15.0315509 C46.9999898,13.7060647 48.0745064,12.6315446 49.3999926,12.6315402 Z" id="Rectangle" fill="url(#linearGradient-1)" transform="translate(63.500000, 16.500000) rotate(90.000000) translate(-63.500000, -16.500000) "></path>
                <path d="M4.4,23 L31.5522013,22.9999996 C31.9940291,22.9999996 32.3522013,23.3581718 32.3522013,23.7999996 C32.3522013,23.7999997 32.3522013,23.7999999 32.3522013,23.8 L32.3521969,30.1849663 C32.3521967,30.6267939 31.9940245,30.9849659 31.5521969,30.9849659 C23.0394622,30.9849663 14.5267276,30.9849663 6.01399288,30.9849663 C3.82713619,30.9849663 2.48913856,32.0132333 2,34.0697674 L2,25.4 C2,24.0745166 3.0745166,23 4.4,23 Z" id="Rectangle" fill="url(#radialGradient-2)" transform="translate(17.176101, 28.534884) scale(1, -1) translate(-17.176101, -28.534884) "></path>
                <path d="M2.4,13.4418605 L7.84179998,13.4418605 C8.28362778,13.4418605 8.64179998,13.8000327 8.64179998,14.2418605 C8.64179998,19.9804473 8.64179998,25.7190341 8.64179998,31.4576209 C8.64179998,33.1525403 9.75491068,34 11.9811321,34 L2.4,34 C1.0745166,34 1.92822353e-15,32.9254834 0,31.6 L4.4408921e-16,15.8418605 C2.8176431e-16,14.5163771 1.0745166,13.4418605 2.4,13.4418605 Z" id="Rectangle" fill="url(#linearGradient-3)"></path>
                <path d="M2.4,0.790697674 L12,0.790697674 C9.77027274,1.15538429 8.65540912,2.68480543 8.65540912,5.37896112 C8.65540912,9.42019464 8.65540912,14.5363928 8.65540912,15.6883457 C8.65540912,17.0899137 9.77027274,17.7906977 12,17.7906977 L2.4,17.7906977 C1.0745166,17.7906977 7.3230219e-18,16.7161811 -1.33226763e-15,15.3906977 L0,3.19069767 C-1.623249e-16,1.86521427 1.0745166,0.790697674 2.4,0.790697674 Z" id="Rectangle" fill="url(#radialGradient-4)" transform="translate(6.000000, 9.290698) scale(1, -1) translate(-6.000000, -9.290698) "></path>
                <path d="M2.4,0 L22.3647799,0 L22.3647767,8.55533115 C12.1252393,8.55533115 6.11210971,8.55533115 4.32538785,8.55533115 C2.19991821,8.55533115 0.758122262,9.65704247 0,11.8604651 L4.4408921e-16,2.4 C2.8176431e-16,1.0745166 1.0745166,1.13166577e-15 2.4,8.8817842e-16 Z" id="Rectangle" fill="#FFFFFF"></path>
                <path d="M2.4,13 L16.7698113,13 C18.0952947,13 19.1698113,14.0745166 19.1698113,15.4 L19.1698113,19.1553087 C19.1698113,20.4807921 18.0952947,21.5553087 16.7698113,21.5553087 C12.482477,21.5553087 8.19514265,21.5553087 3.90780831,21.5553087 C1.53255277,21.5553087 0.229950002,22.6570275 2.66453526e-14,24.8604651 L2.70894418e-14,15.4 C2.69271169e-14,14.0745166 1.0745166,13 2.4,13 Z" id="Rectangle" fill="#FFFFFF"></path>
                <path d="M44.576832,9.16530814 L61.125666,0.945096281 C62.3127656,0.355434765 63.7531151,0.839754052 64.3427766,2.02685369 C64.5075818,2.35863754 64.5933426,2.72406941 64.5933426,3.09453031 C64.5933426,3.86735807 64.5933426,4.64018584 64.5933426,5.41301361 C64.5933426,5.85970138 64.5933426,6.72654728 64.5933426,8.01355131 L64.5933708,8.01355131 C64.5933708,8.31601582 64.4227928,8.59262155 64.1525255,8.72841687 C58.6635926,11.4863214 53.0609679,14.1514866 47.3446514,16.7239126 C45.3998446,17.6317698 44.0331304,18.9420864 43.2445087,20.6548624 L43.2445087,11.3147422 C43.2445087,10.4034204 43.7606545,9.57072355 44.576832,9.16530814 Z" id="Rectangle" fill="url(#linearGradient-5)" transform="translate(53.918940, 10.674431) scale(-1, 1) rotate(90.000000) translate(-53.918940, -10.674431) "></path>
                <path d="M31.0126086,8.99621016 L47.5614206,0.934675648 C48.7530368,0.354195607 50.1896047,0.84961935 50.7700847,2.04123555 C50.9295835,2.36865658 51.0124727,2.72808385 51.0124727,3.09228764 C51.0124727,3.83634021 51.0124727,4.58039278 51.0124727,5.32444535 C51.0124727,5.76091362 51.0124727,6.60643073 51.0124727,7.86099669 L51.0124671,7.86099669 C51.0124671,8.16569344 50.8393814,8.44393457 50.5660624,8.57860754 C45.0789225,11.2822957 39.4781681,13.8950964 33.7637992,16.4170097 C31.3066767,17.4708786 29.9399639,18.8842484 29.6636607,20.6571192 L29.6636607,11.1538221 C29.6636607,10.2358201 30.1873201,9.39823849 31.0126086,8.99621016 Z" id="Rectangle" fill="url(#linearGradient-6)" transform="translate(40.338067, 10.674431) scale(-1, -1) rotate(90.000000) translate(-40.338067, -10.674431) "></path>
                <path d="M15.7521906,13.3834992 C27.6724894,13.3834047 36.8528588,13.3833972 43.2932988,13.3834766 C45.5874271,13.3835049 46.9403946,11.9265389 47.3522013,9.01257862 L47.3522013,19.3537614 C47.3522013,20.6792448 46.2776847,21.7537614 44.9522013,21.7537614 C35.9176725,21.7537614 26.8831438,21.7537614 17.848615,21.7537614 C15.3989372,21.7537614 13.9001326,22.831648 13.3522013,24.9874214 L13.3521976,15.783509 C13.3521988,14.4580272 14.4267088,13.3835097 15.7521906,13.3834992 Z" id="Rectangle" fill="#FFFFFF" transform="translate(30.352201, 17.000000) scale(-1, 1) rotate(90.000000) translate(-30.352201, -17.000000) "></path>
                <path d="M61.4,22 L78.6,21.9999991 C79.9254834,21.9999991 81,23.0745157 81,24.3999991 C81,24.3999994 81,24.3999997 81,24.4 L80.9999968,29.7553213 C80.9999967,30.197149 80.6418245,30.555321 80.1999968,30.555321 C74.1031438,30.5553213 68.0062909,30.5553213 61.9094379,30.5553213 C60.3243519,30.5553213 59.3545393,31.6570359 59,33.8604651 L59,24.4 C59,23.0745166 60.0745166,22 61.4,22 Z" id="Rectangle" fill="url(#linearGradient-7)" transform="translate(70.000000, 27.930233) scale(1, -1) translate(-70.000000, -27.930233) "></path>
                <path d="M83.1586339,26.7905424 L112.343523,-3.63359434 C113.237212,-4.56523078 114.71693,-4.59599353 115.648566,-3.70230486 C116.108116,-3.2614738 116.367922,-2.65223577 116.367924,-2.01543292 L116.367934,2.81551372 C116.367935,3.44514683 116.120507,4.04956365 115.678994,4.49845525 L83.1586339,37.5622591 L83.1586339,26.7905424 Z" id="Rectangle" fill="url(#linearGradient-8)" transform="translate(99.763284, 16.604652) scale(-1, -1) rotate(90.000000) translate(-99.763284, -16.604652) "></path>
                <path d="M70.2893082,0 L79.8188285,-8.8817842e-16 C81.1443119,-1.13166577e-15 82.2188285,1.0745166 82.2188285,2.4 C82.2188285,11.531765 82.2188285,20.6635299 82.2188285,29.7952949 C82.2188285,32.5984307 83.3010219,33.9999991 85.4654088,34 L76.2170708,34.0000106 C74.891581,34.0000104 73.8170593,32.9254886 73.8170593,31.5999989 C73.8170593,21.5828629 73.8170593,12.3670066 73.8170593,3.95243006 C73.8170593,2.4907177 72.6411423,1.17324102 70.2893082,0 Z" id="Rectangle" fill="#FFFFFF" transform="translate(77.877358, 17.000000) scale(-1, 1) translate(-77.877358, -17.000000) "></path>
                <polygon id="Rectangle" fill="url(#radialGradient-9)" transform="translate(109.427673, 13.441860) scale(1, -1) rotate(90.000000) translate(-109.427673, -13.441860) " points="95.9858125 26.5567683 122.869533 -4.13046658 122.869533 14.0991185 100.504665 31.0141875"></polygon>
                <path d="M88.2751847,28.3597071 L91.6488126,24.9811308 L95.057823,28.5959512 C95.3747119,29.127757 95.4875687,29.7768416 95.3963934,30.5432051 C95.3052181,31.3095686 94.8484234,31.8528126 94.0260094,32.1729373 L92.1974059,29.1460872 C92.0511881,28.904056 91.7364501,28.8263838 91.4944189,28.9726015 C91.4129756,29.0218037 91.3468543,29.0927277 91.3034744,29.1774156 L90.5036478,30.7388653 L88.2751847,28.3597071 Z M85.4654088,27.347793 L90.5575254,22.1395349 L91.2588196,24.6647509 L87.8365968,28.0314503 L85.4654088,27.347793 Z M88.719373,32.7462801 L89.7524579,32.7462801 L91.4533869,29.4094248 C91.5577263,29.2047334 91.8082453,29.1233821 92.0129367,29.2277215 C92.0888512,29.2664182 92.1510519,29.3274932 92.1911283,29.4026884 L93.9731475,32.7462801 L95.0167199,32.7462801 L95.8490566,34 L87.7825364,34 L88.719373,32.7462801 Z" id="Combined-Shape" fill="#FFFFFF" transform="translate(90.657233, 28.069767) scale(-1, 1) translate(-90.657233, -28.069767) "></path>
            </g>
        </g>
    </g>
</svg>
