<?xml version="1.0" encoding="UTF-8"?>
<svg width="250px" height="250px" viewBox="0 0 250 250" version="1.1" xmlns="http://www.w3.org/2000/svg" xmlns:xlink="http://www.w3.org/1999/xlink">
    <!-- Generator: Sketch 53.2 (72643) - https://sketchapp.com -->
    <title>TwitterIcon</title>
    <desc>Created with Sketch.</desc>
    <g id="TwitterIcon" stroke="none" stroke-width="1" fill="none" fill-rule="evenodd">
        <path d="M31.0676348,46.8934461 C44.7189247,62.0800711 59.4490573,73.3724382 75.2580327,80.7705475 C91.0670081,88.1686568 106.853262,92.4049624 122.616794,93.4794644 C118.902478,70.4190304 126.27263,53.5690709 144.727248,42.9295862 C154.503756,37.2932184 169.95734,36.1680351 182.787078,41.2384739 C187.042126,42.9201107 191.973022,46.6040911 197.579766,52.2904149 C205.04554,50.4771772 210.498813,48.8841115 213.939584,47.5112179 C217.380355,46.1383242 221.159941,44.0474096 225.278342,41.2384739 C224.136311,46.3062902 222.372214,50.3755197 219.986051,53.4461622 C217.599888,56.5168048 213.038386,60.5876958 206.301544,65.6588352 C212.036421,64.88946 216.293985,64.124439 219.074236,63.3637721 C221.854487,62.6031052 225.845107,61.1114523 231.046095,58.8888133 C228.804937,63.4472118 226.268015,67.1872851 223.435328,70.1090333 C220.602641,73.0307815 215.655217,77.0103667 208.593056,82.0477887 C210.354708,125.15269 194.048373,160.90051 159.674049,189.291248 C134.980221,209.686589 96.8278564,216.865345 59.0037273,210.808195 C45.3125307,208.61569 31.6446216,202.98093 18,193.903917 C33.1857731,194.946262 46.1686148,193.408706 56.9485251,189.291248 C67.7284354,185.173791 75.9963642,180.475531 81.7523115,175.196471 C70.2201066,173.916514 61.2868661,170.632329 54.9525899,165.343917 C48.6183137,160.055505 43.9086177,153.139958 40.823502,144.597275 C44.2910732,144.993362 47.6498495,145.191405 50.8998308,145.191405 C54.1498122,145.191405 57.2092617,144.740279 60.0781794,143.838026 C48.4509308,140.224826 39.680062,134.66395 33.7655731,127.155397 C27.8510842,119.646845 25.2028878,110.841744 25.8209839,100.740094 C28.8666875,102.195867 31.6508501,103.314729 34.1734718,104.096681 C36.6960935,104.878634 40.1669602,105.26961 44.586072,105.26961 C33.9025636,96.9470647 27.6475343,87.4431308 25.8209839,76.7578083 C23.9944335,66.0724859 25.7433171,56.1176985 31.0676348,46.8934461 Z" id="Path-4" fill="#8286a4"></path>
    </g>
</svg>