<svg xmlns:svg="http://www.w3.org/2000/svg" xmlns="http://www.w3.org/2000/svg" x="0px" y="0px" viewBox="0 0 100 125"><g transform="translate(0,-952.36218)"><path d="m 1.91675,1015.0902 2.1213,2.1213 7.7782,7.7782 2.1213,2.1213 2.1213,-2.1213 c 3.1493,-3.1493 8.1646,-3.1492 11.3138,0 3.1493,3.1493 3.1493,8.1644 0,11.3137 l -2.1214,2.1213 2.1214,2.1213 7.7781,7.7782 2.1213,2.1213 2.1214,-2.1213 56.5685,-56.56863 2.1213,-2.12132 -2.1213,-2.12132 -7.7782,-7.77818 -2.1213,-2.12132 -2.1213,2.12132 c -3.1493,3.14932 -8.1643,3.14938 -11.3137,1e-5 -3.1492,-3.1492 -3.1493,-8.16448 0,-11.31371 l 2.1213,-2.12132 -2.1213,-2.12132 -7.7782,-7.77818 -2.1213,-2.12132 -2.1213,2.12132 -56.5686,56.56857 -2.1213,2.1214 z m 8.4853,0 34.6482,-34.64834 26.8701,26.87004 -34.6483,34.6483 -3.8006,-3.8007 c 3.45,-5.4108 2.8569,-12.6994 -1.8562,-17.4125 -4.713,-4.7129 -12.0237,-5.3282 -17.4346,-1.8782 l -3.7786,-3.7786 z m 38.8909,-38.89098 13.435,-13.43503 3.7786,3.7786 c -3.45,5.41088 -2.8347,12.72164 1.8782,17.43461 4.7131,4.71305 12.0017,5.30619 17.4126,1.85615 l 3.8007,3.8007 -13.4351,13.43505 -26.87,-26.87008 z m -14.1422,21.2132 3.9333,9.23658 -6.8059,7.6899 10.0983,-1.0828 5.0382,8.662 2.3202,-9.9215 9.9217,-2.3202 -8.662,-5.0383 1.0827,-10.0983 -7.6898,6.8059 -9.2367,-3.93328 z" style="text-indent:0;text-transform:none;direction:ltr;block-progression:tb;baseline-shift:baseline;enable-background:accumulate;" fill-opacity="1" stroke="none" marker="none" visibility="visible" display="inline" overflow="visible"/></g></svg>
