<?xml version="1.0" encoding="UTF-8"?>
<svg width="100px" height="100px" viewBox="0 0 100 100" version="1.1" xmlns="http://www.w3.org/2000/svg" xmlns:xlink="http://www.w3.org/1999/xlink">
    <!-- Generator: Sketch 48.2 (47327) - http://www.bohemiancoding.com/sketch -->
    <title>AMC-Logomark</title>
    <desc>Created with Sketch.</desc>
    <defs></defs>
    <g id="Page-1" stroke="none" stroke-width="1" fill="none" fill-rule="evenodd">
        <g id="AMC-Logomark">
            <circle id="Oval" fill="#E01C37" cx="50" cy="50" r="50"></circle>
            <g id="Group-2" transform="translate(10.016602, 39.593362)" fill="#FFFFFF">
                <path d="M17.7383677,17.1426937 C17.7383677,14.7757709 15.3510413,14.7673707 15.3510413,14.7673707 L6.7486492,14.7673707 C6.23937918,14.7673707 6.17958102,14.3841916 6.30246295,13.9383339 C7.353202,11.3717444 9.68335877,8.49757771 12.1758248,7.24400681 C14.2365613,6.20690306 16.6002314,5.13102906 19.0512987,5.28740234 C19.5625401,5.32681875 19.5625401,5.56137866 19.5645115,6.35164526 L19.5645115,17.0276754 C19.5645115,17.0276754 19.6880505,19.4514611 22.0753769,19.4514611 C24.5317013,19.4514611 24.337193,17.1071543 24.337193,17.1071543 L24.3273361,3.70299211 C24.3595351,2.8888172 24.2077398,2.10630464 23.7148979,1.48081154 C23.3488806,1.15191072 22.8553815,0.807501807 22.2981415,0.729315169 C19.3700032,0.494755253 16.5568613,0.755161991 13.8626586,1.52733582 C8.86524112,2.95924979 4.09058824,6.95064538 1.63952091,11.699999 C0.804975197,13.317364 0.0321990079,15.4406804 0,17.3972849 C0.0321990079,18.3361707 0.429758187,19.4314299 1.5199246,19.4314299 L15.3904686,19.5018625 C15.3904686,19.5018625 17.7383677,19.5878031 17.7383677,17.1426937" id="Fill-420"></path>
                <path d="M41.3047559,3.14943978 C44.9990992,0.0743140549 48.872837,0.136346429 52.1676497,1.7330339 C55.2311553,3.32132115 56.3292072,5.60682644 56.3771772,8.94042039 L56.3745487,17.1235244 C56.3745487,17.1235244 56.3449781,19.4322919 53.937938,19.4322919 C51.6498371,19.4322919 51.5427261,17.1383864 51.5427261,17.1383864 L51.5105271,9.05350024 C51.5105271,9.05350024 51.3712171,5.29731074 47.5520205,5.29731074 C43.711796,5.29731074 43.4075482,9.03411512 43.4075482,9.03411512 L43.4075482,16.9923518 C43.4075482,16.9923518 43.4075482,19.402568 40.9761946,19.402568 C38.6020106,19.402568 38.5527264,16.9923518 38.5527264,16.9923518 L38.5514121,9.05737726 C38.5514121,9.05737726 38.4797858,5.29731074 34.4207394,5.29731074 C30.382721,5.29731074 30.4858892,9.11230176 30.4858892,9.11230176 L30.4858892,17.2740822 C30.4858892,17.2740822 30.2033265,19.4219531 28.0749064,19.4219531 C25.8663173,19.4219531 25.6435527,17.2546971 25.6435527,17.2546971 L25.6277818,9.01860703 C25.6277818,5.98225154 26.2244491,2.96915819 30.6173137,1.2632679 C32.6129951,0.487863217 34.954323,0.504663652 37.0551439,0.973783483 C38.4554722,1.47521184 39.665235,2.1478754 40.8434558,3.14943978 L41.0662204,3.34135244 L41.3047559,3.14943978 Z" id="Fill-418"></path>
                <path d="M78.3079871,18.1418848 C78.5373229,18.1418848 78.8928262,18.1793627 78.8928262,17.8524004 C78.8928262,17.6042709 78.6707188,17.5745471 78.4689822,17.5745471 L78.0024251,17.5745471 L78.0024251,18.1418848 L78.3079871,18.1418848 Z M79.0722207,19.0355387 L78.8356566,19.0355387 L78.3690995,18.2950272 L78.0024251,18.2950272 L78.0024251,19.0355387 L77.8039741,19.0355387 L77.8039741,17.4310972 L78.5143236,17.4310972 C78.6516622,17.4310972 78.7890009,17.4388512 78.9118828,17.5105762 C79.0334505,17.5784241 79.09522,17.7205816 79.09522,17.8562774 C79.09522,18.1716087 78.869827,18.2879194 78.5793788,18.2950272 L79.0722207,19.0355387 Z M79.625518,18.2317025 C79.625518,17.5370692 79.052507,16.9736084 78.3461002,16.9736084 C77.6357507,16.9736084 77.0627398,17.5370692 77.0627398,18.2317025 C77.0627398,18.9334438 77.6357507,19.4975507 78.3461002,19.4975507 C79.052507,19.4975507 79.625518,18.9334438 79.625518,18.2317025 L79.625518,18.2317025 Z M76.8833453,18.2317025 C76.8833453,17.4427283 77.5358681,16.8004347 78.3461002,16.8004347 C79.1523897,16.8004347 79.8016268,17.4427283 79.8016268,18.2317025 C79.8016268,19.0284308 79.1523897,19.6700782 78.3461002,19.6700782 C77.5358681,19.6700782 76.8833453,19.0284308 76.8833453,18.2317025 L76.8833453,18.2317025 Z" id="Fill-416"></path>
                <path d="M75.6361266,11.0521014 C78.0641946,11.300877 77.760604,13.5405042 77.760604,13.5405042 C76.4496444,17.5952245 72.5897062,20.0713501 68.0325609,20.0713501 C62.3964203,20.0713501 57.8267896,15.5785262 57.8267896,10.0356751 C57.8267896,4.49282395 62.3964203,0 68.0325609,0 C72.6094199,0 76.4825005,2.19568758 77.7776892,6.27625471 C77.7776892,6.27625471 78.3953844,8.73170286 75.7084101,9.03863388 C73.7199571,9.03863388 73.4137379,7.44388492 73.4137379,7.44388492 C72.6449045,5.25530521 70.5302839,4.44888435 68.0430748,4.44888435 C64.9046573,4.44888435 62.3615928,6.95021061 62.3615928,10.0356751 C62.3615928,13.1211395 64.9046573,15.6218196 68.0430748,15.6218196 C70.4993992,15.6218196 72.5923347,14.5485303 73.3848245,12.4013055 C73.3848245,12.4013055 73.8717524,11.0139773 75.6361266,11.0521014" id="Fill-422"></path>
            </g>
        </g>
    </g>
</svg>