<?xml version="1.0" encoding="UTF-8"?>
<svg width="100px" height="100px" viewBox="0 0 100 100" version="1.1" xmlns="http://www.w3.org/2000/svg" xmlns:xlink="http://www.w3.org/1999/xlink">
    <!-- Generator: Sketch 48.2 (47327) - http://www.bohemiancoding.com/sketch -->
    <title>Arclight-Logomark</title>
    <desc>Created with Sketch.</desc>
    <defs></defs>
    <g id="Page-1" stroke="none" stroke-width="1" fill="none" fill-rule="evenodd">
        <g id="Arclight-Logomark">
            <circle id="Oval" fill="#1B1D57" cx="50" cy="50" r="50"></circle>
            <path d="M60.4994437,26.5644939 C60.3749365,28.0280997 60.254876,29.5184787 59.5478531,30.803596 C59.1254181,31.1873462 58.689643,31.307826 58.1916143,31.2676661 C57.364531,31.1918085 56.5418944,31.0936398 55.714811,31.0624043 C54.7721139,31.0267066 53.8205234,31.0579421 52.8733796,31.0579421 L51.6727747,31.0579421 C51.4815673,30.4867789 51.6594347,30.1878106 51.9351291,29.9156156 C52.5887918,29.2775192 53.2424544,28.6483472 53.8738836,27.9834775 C54.2740852,27.5684917 54.6565001,27.1267327 54.9855548,26.6537381 C55.6125373,25.7255979 56.1906063,24.7706844 56.9509893,23.9184018 C57.4934849,23.3115408 57.8403263,22.5217292 58.2538679,21.8033129 C58.4895422,21.3972516 58.689643,20.9688792 58.8941905,20.56728 C59.8057609,20.5762044 60.0725619,20.7056086 60.2771094,21.3481672 C60.41051,21.7943885 60.508337,22.2673831 60.5216771,22.7314532 C60.5528039,24.007646 60.6061641,25.2972255 60.4994437,26.5644939 M85.9656063,28.1218061 C85.8944594,27.4257009 85.7254854,26.7697557 85.1874365,26.2387524 C85.0051225,26.2253657 84.8272551,26.2030547 84.6493877,26.1941302 C83.4354428,26.1361215 82.2793048,26.461863 81.1320602,26.7697557 C80.2560633,27.0017907 79.4111932,27.385541 78.5307497,27.4926341 C76.9521767,27.6845093 75.3780503,27.8406867 73.817264,28.161966 C71.3849275,28.6617339 68.9436977,29.1213418 66.5069145,29.5987985 C66.2401135,29.6478829 65.964419,29.6791184 65.6353644,29.7282027 C65.5464307,28.6974316 65.4352636,27.7603669 65.4041368,26.8233022 C65.38635,26.3592321 65.5731108,25.895162 65.5686641,25.4266296 C65.5642174,23.0571947 65.866592,20.7100708 65.9777591,18.3540225 C66.1022662,15.8774945 66.2312201,13.3875798 65.8265718,10.9155139 C65.4975171,8.94767814 64.8838747,7.11817093 63.6076762,5.55639648 L62.9540135,5.55639648 C62.7761462,6.29266158 62.6027255,7.02446446 62.4159647,7.81873832 C60.988579,8.57285227 59.930268,9.78657413 58.7830234,10.9065895 C57.8447729,11.8124187 57.2088971,12.8922742 56.8220355,14.1283071 C56.6664015,14.650386 56.5241076,15.1769271 56.3417936,15.6856193 C56.0216323,16.6048351 55.5369436,16.9439633 54.545333,16.9662744 C54.2251717,16.9751988 53.9050104,16.9662744 53.5314889,16.9662744 C53.3091547,17.5642109 53.0823737,18.0952142 52.9222931,18.6440663 C52.4153711,20.335245 52.4242644,20.335245 51.0146654,21.1518299 C50.9390718,21.3794027 50.8145646,21.6382111 50.7478643,21.9193305 C50.6811641,22.1959877 50.6633773,22.4904937 50.6100171,22.8876306 C50.2943025,23.0750436 49.9296744,23.293692 49.4761125,23.565887 C49.3471587,23.8470064 49.187078,24.2084456 49.004764,24.6145069 C48.4845019,24.7216 47.9197729,24.8331554 47.2527702,24.9670217 C47.1727299,25.0384171 46.9103755,25.1588969 46.8703554,25.3373854 C46.6880413,26.0647261 46.127759,26.4797118 45.634177,26.9571686 C45.0294279,27.5506429 44.5402926,28.2199748 44.140091,28.9651643 C43.8555032,29.5006298 43.7799096,30.0539442 44.0066905,30.6474185 C44.1845579,31.1204131 44.309065,31.6067942 44.4691457,32.1065621 C44.042264,32.56617 43.4953218,32.2984372 43.0150798,32.3921437 C42.5259445,32.4858501 42.0279158,32.56617 41.2853195,32.6911119 C41.0229651,32.8205161 40.5382765,33.0659378 40.1736484,33.2444263 C39.6089194,33.9360693 39.1331242,34.5340058 38.6395422,35.1140934 C38.1637469,35.6807944 37.5545511,35.8860562 36.8075081,35.8949806 C33.9038231,35.9485272 31.0534982,36.3501263 28.3232339,37.3987463 C27.4383437,37.7289501 26.5445601,38.001145 25.6641165,38.335811 C24.7525462,38.6749392 23.9921631,39.2059425 23.5652814,40.1340827 C23.471901,40.3527311 23.2895869,40.5267574 23.0716994,40.8257257 C22.7115179,40.4018155 22.4180368,40.0493007 22.0711954,39.6521637 C21.1640717,39.6075416 20.3770085,40.0225274 19.6299655,40.5401441 C19.0341098,40.9506676 18.4560408,41.3835023 17.8557384,41.7895636 C17.6823177,41.9055812 17.4599834,41.9903632 17.2509893,42.0171365 C16.4639261,42.1063807 15.6679695,42.2402471 14.8764597,42.2223983 C14.0716098,42.2045494 13.3823737,42.4098112 12.7820712,42.9318901 L12.7820712,45.5690578 C12.9866187,46.0911367 13.2534198,46.5998289 13.3823737,47.1442189 C13.5335609,47.7466176 13.3423535,48.2910075 12.7820712,48.6435223 L12.7820712,48.866633 C14.0360363,49.8081599 16.7529606,51.1691347 17.7089978,51.2851523 C17.9846922,51.0129573 18.3270869,50.6961402 18.6561416,50.3748609 C19.016323,50.0178838 19.3720578,49.6564446 19.7055592,49.3217787 L21.0128844,49.3217787 C21.7999476,49.0718948 22.2979763,48.4025629 23.0939328,48.3088564 C23.5519413,49.2414588 23.4763477,50.147288 23.302927,51.0932771 C23.2050999,51.6198182 23.0805928,52.1017372 22.6759445,52.4453276 C22.062302,52.9629442 21.7110139,53.6144273 21.5865067,54.364079 C21.6798871,54.7344427 21.7421407,55.0958819 21.8577545,55.4350101 C21.977815,55.8142981 22.1112155,56.1935862 22.2890829,56.5505632 C23.1561864,58.2506663 24.7392061,58.6299544 26.3088858,57.57241 C27.1448625,57.0101712 27.8963522,56.314066 28.674522,55.6893562 C29.096957,54.551492 29.2081241,53.2842235 30.4265157,52.4587142 C31.6760341,52.1240482 32.903319,51.3833209 33.9927568,50.4953406 C35.0421743,49.6341336 36.1938656,48.7684643 36.4250932,47.2557742 C36.3761797,46.979117 36.3317129,46.7158464 36.2827993,46.4168782 C36.4873468,46.349945 36.6163007,46.265163 36.7497012,46.2562385 C38.4527814,46.1937676 40.0224611,45.7341597 41.4320601,44.7390862 C41.8367084,44.4579668 42.3258437,44.3196382 42.8461058,44.230394 C44.224578,43.9938967 45.6786439,43.895728 46.6613612,42.7177039 C47.5462514,42.8158725 48.3644414,42.9051168 49.0936977,42.9898988 C50.2187089,42.4588955 51.232553,41.9769766 52.2775238,41.4861332 C53.0556936,41.6556972 53.896117,41.8475724 54.6609468,42.0171365 C55.0567017,41.8564968 55.390203,41.7226304 55.6792375,41.6021507 C56.4663007,42.0394475 56.5241076,42.7310905 56.5774678,43.4271957 C56.6975283,44.8997259 56.4040471,46.3231717 56.0660991,47.7376932 C55.8304248,48.7283044 55.6481108,49.72784 55.7281511,50.7541489 C55.7726179,51.2940767 55.9060185,51.8295422 55.9104651,52.3694699 C55.9371453,54.2748348 55.9149118,56.1801996 55.9104651,58.0811022 C55.9104651,58.3354483 55.9326986,58.6031811 55.870445,58.8441406 C55.6481108,59.7499698 55.6570041,60.6334879 55.8659983,61.5348548 C55.9415919,61.8382853 55.870445,62.1818757 55.8215315,62.5076172 C55.5769638,64.1497115 55.2612492,65.7828813 55.0700418,67.4339 C54.8610476,69.236634 54.7454338,71.0482923 54.6253733,72.8599507 C54.5809065,73.5739047 54.4252725,74.2343122 53.9628173,74.7787021 C53.1179472,75.7737756 53.1312873,76.9294887 53.4203218,78.0852017 C53.6782295,79.0936618 54.0473043,80.0887352 54.4386125,81.0614976 C54.7098603,81.7352917 54.7320937,82.3733882 54.2696385,82.9088537 C53.3402815,83.9708603 52.9222931,85.3095241 52.2908639,86.5277082 C51.9440225,87.2059645 51.908449,87.9020697 52.2063769,88.6249481 C52.3709042,89.0265473 52.4776246,89.4504575 52.5798984,89.8743677 C52.739979,90.5749351 52.5976851,91.1728716 51.908449,91.5476975 C51.7839418,91.6190929 51.6950081,91.7395726 51.5082474,91.9180611 C51.5971811,92.2259538 51.6016278,92.6320152 51.8017286,92.8774369 C52.5309849,93.783266 53.3091547,94.6623219 54.1095579,95.5012179 C54.4341659,95.8358839 54.8743876,96.0723811 55.3857564,95.8671194 C55.9638254,95.6350843 56.0527591,95.0594589 56.123906,94.5953887 C56.3417936,93.1630185 56.5730212,91.7172616 56.5730212,90.2715046 C56.5730212,88.6026371 56.8753957,87.0408626 57.4223379,85.4790882 C58.4228419,82.6143476 59.0009109,79.664825 58.7874701,76.6126716 C58.6585162,74.6671468 58.9564441,72.7573198 59.2899454,70.8653416 C59.6412335,68.8573459 59.9035879,66.8493502 59.8858012,64.810119 C59.8724611,63.4580685 59.8946945,62.1015558 59.9035879,60.7450432 C59.9035879,60.4549994 59.8946945,60.1560311 59.9258213,59.8659873 C60.0503285,58.6790387 60.2415359,57.5010146 60.3171296,56.3096038 C60.3927232,55.0334109 60.6595243,53.8018402 60.904092,52.5568829 C61.2198066,50.9638729 61.6155615,49.3797874 61.8378957,47.7733909 C62.0113164,46.4793492 62.2025239,45.1897697 62.5404719,43.9358879 C63.0918608,41.9011189 64.1724051,40.3438067 66.2801336,39.5852306 C67.458505,39.1613203 68.6324298,38.6169304 69.4950866,37.5995459 C70.0153487,36.9837605 70.7223715,36.8409697 71.4872013,37.1176269 C71.6873021,37.1934845 71.8785095,37.2916532 71.8962963,37.3050399 C72.8968003,37.3050399 73.6794168,37.077467 74.5198402,37.1890223 C75.8405055,37.3630486 77.1700642,37.0953159 78.2817354,36.3992107 C79.6379742,35.5513903 81.0164464,35.105169 82.6083595,35.2345732 C83.3865293,35.3015064 84.1068922,35.0471602 84.7338747,34.6098634 C85.2852636,33.6594121 85.4898111,32.6197165 85.6810185,31.5934076 C85.8944594,30.4510811 86.0856668,29.2909058 85.9656063,28.1218061" id="Fill-1" fill="#FEFEFE"></path>
        </g>
    </g>
</svg>