<?xml version="1.0" encoding="UTF-8"?>
<svg width="399px" height="399px" viewBox="0 0 399 399" version="1.1" xmlns="http://www.w3.org/2000/svg" xmlns:xlink="http://www.w3.org/1999/xlink">
    <!-- Generator: Sketch 55.2 (78181) - https://sketchapp.com -->
    <title>Cinepolis_logo_GB19U5qv_400x400</title>
    <desc>Created with Sketch.</desc>
    <g id="Page-1" stroke="none" stroke-width="1" fill="none" fill-rule="evenodd">
        <g id="Cinepolis_logo_GB19U5qv_400x400" transform="translate(0.000000, -1.000000)" fill-rule="nonzero">
            <g id="Group" transform="translate(199.900000, 200.100000) scale(-1, 1) rotate(-180.000000) translate(-199.900000, -200.100000) translate(0.400000, 0.600000)">
                <path d="M177.6,398 C176.2,397.8 171.7,397.1 167.6,396.5 C128.7,390.9 90.3,371.8 60.7,343.1 C28.7,312.1 9.5,275.8 1.4,230.6 C-0.4,220.4 -0.4,177.8 1.4,167.6 C9,125 26.5,90.3 55.1,60.7 C86.1,28.7 122.4,9.5 167.6,1.4 C177.8,-0.4 220.4,-0.4 230.6,1.4 C266.9,7.9 299,22.4 325.9,44.4 C335.8,52.6 351.9,69.4 359.5,79.6 C375.3,100.9 386.7,124.9 393,150.5 C397.5,168.6 398.1,174.1 398.1,199.1 C398.1,224.1 397.5,229.6 393,247.7 C384.5,282 367.9,311.9 343.1,337.5 C312.6,369 277.4,387.9 233.1,396.3 C225.5,397.8 183.7,399 177.6,398 Z" id="Shape" fill="#222C63"></path>
                <path d="M231.2,311.5 C203.1,315.4 174.5,308.7 150.5,292.6 C135.1,282.2 117.7,261 110.6,243.9 C107.2,235.8 103.6,224.3 103.6,221.6 C103.6,220.3 109.3,218.9 130.9,214.7 C145.8,211.8 159.1,209.2 160.2,208.9 C162,208.5 162.5,209 163,212 C164.1,217.6 170.3,229 175.4,234.7 C181.3,241.3 189.7,246.8 198.4,249.8 C203.7,251.6 207.2,252.1 215.1,252 C226.7,252 233.5,250.2 242.1,245.1 C245.2,243.2 248.3,241.9 248.9,242.3 C250.1,243 293.6,276.5 295,277.7 C297.5,279.9 279.5,294 265.5,300.9 C254.9,306.1 242.5,309.9 231.2,311.5 Z M163.6,183.1 C162.9,185.3 162.1,187.4 161.7,187.7 C161.4,188 152.6,186.6 142.1,184.5 C131.7,182.5 118.7,180 113.4,179 C102.3,177.1 102.6,177.5 105.5,167.6 C110.8,148.8 120.8,132.2 135,118 C145.2,107.8 152.9,102.3 165.6,96 C205.2,76.3 257.1,83 289.1,111.9 C292.7,115.2 295.6,118.2 295.4,118.6 C295.1,119.3 251.6,153.3 248.6,155.1 C248,155.5 246.7,155.1 245.8,154.3 C242.5,151.3 231.3,146.7 224.3,145.5 C197.6,141 171.8,157 163.6,183.1 Z" id="Path-2" fill="#FFFFFF"></path>
            </g>
        </g>
    </g>
</svg>